<?xml version="1.0" standalone="no"?>
<!DOCTYPE svg PUBLIC "-//W3C//DTD SVG 20010904//EN"
 "http://www.w3.org/TR/2001/REC-SVG-20010904/DTD/svg10.dtd">
<svg version="1.0" xmlns="http://www.w3.org/2000/svg"
 width="300.000000pt" height="300.000000pt" viewBox="0 0 300.000000 300.000000"
 preserveAspectRatio="xMidYMid meet">
<metadata>
Created by potrace 1.10, written by Peter Selinger 2001-2011
</metadata>
<g transform="translate(0.000000,300.000000) scale(0.100000,-0.100000)"
fill="#000000" stroke="none">
<path d="M1706 2271 c-3 -5 -27 -20 -53 -33 -38 -19 -59 -23 -100 -20 -37 3
-53 8 -53 18 0 17 -10 17 -32 1 -12 -10 -35 -11 -85 -6 -97 11 -113 11 -113
-3 0 -8 32 -21 78 -31 42 -10 91 -24 107 -31 l30 -13 -38 -19 c-31 -15 -42
-16 -57 -6 -27 17 -33 15 -27 -8 5 -18 1 -19 -44 -14 -58 7 -63 -1 -14 -22 19
-8 35 -19 35 -26 0 -6 3 -8 6 -5 4 3 16 0 28 -8 27 -19 38 -19 34 1 -2 12 15
22 67 39 83 27 111 20 121 -32 11 -58 44 -52 44 10 0 15 4 27 9 27 5 0 6 15 1
33 -7 32 -6 34 44 60 54 28 106 71 106 87 0 13 -87 13 -94 1z m-110 -84 c35
-1 39 -3 28 -15 -8 -7 -14 -23 -14 -34 0 -16 -4 -18 -17 -12 -10 4 -33 8 -52
8 -29 1 -37 6 -47 32 l-13 31 37 -5 c20 -2 55 -5 78 -5z"/>
<path d="M979 2020 c-9 -5 -22 -24 -30 -41 -11 -28 -14 -29 -19 -13 -4 10 -3
22 3 25 5 4 0 10 -12 14 -31 10 -34 4 -16 -38 l15 -37 -55 0 -56 0 -20 -46
c-11 -26 -18 -49 -15 -51 2 -2 18 13 35 34 17 21 31 32 31 24 0 -10 5 -10 24
3 17 11 32 13 48 7 l22 -8 -21 -11 c-12 -7 -30 -31 -42 -54 -19 -40 -20 -47
-6 -97 19 -75 27 -76 23 -3 -1 34 -1 63 2 65 3 1 13 19 23 40 9 21 22 35 27
32 6 -3 10 -2 10 3 0 6 11 9 25 8 29 -1 30 -4 9 -27 -14 -16 -12 -17 30 -14
35 3 46 0 46 -11 0 -8 -7 -17 -15 -21 -20 -7 -45 -55 -45 -84 0 -36 -9 -17
-29 62 -15 58 -19 67 -20 39 -1 -48 30 -160 68 -249 17 -41 29 -81 26 -88 -2
-8 -1 -11 4 -8 5 3 13 0 17 -6 9 -15 -11 -26 -62 -34 -24 -3 -46 -10 -49 -15
-6 -10 38 -5 90 11 165 49 746 51 900 2 11 -3 30 -7 42 -9 11 -1 30 -5 42 -9
12 -3 21 -2 21 3 0 5 -6 9 -12 10 -63 4 -98 19 -148 64 -39 35 -56 45 -58 34
-2 -8 2 -24 8 -35 7 -14 7 -21 0 -21 -5 0 -29 39 -53 88 -23 48 -43 89 -44 91
-2 2 -12 -4 -23 -14 -19 -17 -19 -20 -4 -44 9 -14 28 -38 42 -53 14 -15 23
-30 21 -32 -12 -13 -56 24 -78 67 -27 49 -41 59 -41 30 0 -10 -16 9 -35 42
-19 33 -37 59 -40 58 -39 -15 -39 -20 0 -69 22 -27 57 -68 79 -91 22 -24 36
-43 32 -43 -18 0 -86 44 -86 56 0 7 -12 22 -27 34 l-28 22 -3 -22 c-2 -12 -1
-33 3 -47 4 -19 10 -23 27 -17 21 6 21 6 5 -10 -15 -16 -18 -16 -47 5 -17 13
-26 26 -20 29 7 5 8 20 1 49 -11 49 -21 65 -21 33 0 -12 -4 -22 -9 -22 -4 0
-5 19 -1 42 5 23 4 52 0 64 -5 12 -6 25 -3 28 4 3 2 6 -4 6 -5 0 -34 -28 -64
-62 -29 -35 -62 -71 -73 -81 -19 -17 -18 -18 24 -69 44 -51 44 -51 15 -44 -33
8 -76 36 -56 36 11 0 11 3 1 15 -17 21 -25 19 -37 -7 -10 -23 -10 -22 -26 9
-19 36 -23 68 -6 43 8 -11 9 -9 3 10 -14 54 -19 53 -80 -19 -32 -38 -62 -70
-65 -70 -4 -1 -10 44 -14 98 -7 105 -1 151 18 132 6 -6 18 -11 26 -11 11 0 8
7 -10 23 -34 29 -45 57 -21 57 24 0 39 -12 44 -35 2 -11 10 -19 17 -17 7 1 11
-5 10 -15 -2 -10 4 -31 12 -48 14 -28 14 -31 -7 -51 -13 -12 -26 -19 -30 -15
-4 3 -4 0 0 -6 4 -7 3 -13 -2 -13 -6 0 -13 -8 -16 -17 -4 -10 15 4 43 31 37
36 47 53 41 65 -4 9 -13 35 -20 59 -8 33 -20 48 -46 64 -31 18 -34 23 -21 35
9 9 37 15 71 16 62 2 69 8 31 25 -36 16 -66 15 -94 -4 -22 -16 -23 -15 -19 6
2 13 -3 25 -9 27 -9 3 -13 -6 -13 -27 0 -36 6 -36 -97 0 -45 17 -60 26 -56 37
11 29 54 62 88 69 34 6 49 24 21 24 -7 0 -26 2 -42 5 -16 3 -36 1 -45 -5z
m110 -243 c7 -9 8 -24 1 -48 -6 -18 -10 -72 -10 -119 l0 -85 -23 40 c-34 60
-58 123 -48 129 5 3 12 17 15 31 6 24 34 62 47 64 4 1 12 -5 18 -12z m413
-237 c3 -34 2 -35 -32 -36 -39 0 -64 18 -79 58 -9 24 -6 32 21 63 l32 35 27
-42 c15 -24 29 -59 31 -78z m-246 -42 c-12 -8 -106 -11 -106 -3 0 3 17 20 37
39 l37 34 22 -32 c15 -22 18 -33 10 -38z"/>
<path d="M1400 1980 c-22 -7 -20 -8 15 -10 90 -4 90 -17 0 -23 -49 -3 -97 -6
-105 -5 -20 2 -76 -35 -62 -40 6 -2 37 2 68 7 32 6 75 11 96 11 21 0 38 4 38
8 0 12 154 35 179 27 27 -8 27 -23 -1 -35 -16 -7 -3 -8 42 -3 36 3 67 7 68 9
8 6 -60 35 -115 49 -60 16 -181 19 -223 5z"/>
<path d="M1632 1889 c2 -8 32 -18 72 -25 97 -17 122 -30 154 -80 16 -24 33
-40 37 -36 4 4 3 -3 -4 -15 -13 -25 -65 -45 -113 -41 -18 1 -39 -1 -45 -5 -16
-10 -62 10 -92 39 -15 16 -32 23 -44 20 -10 -2 -30 0 -43 6 -30 14 -43 3 -21
-19 14 -14 20 -15 44 -4 26 12 30 10 71 -33 24 -25 45 -46 48 -46 3 0 12 7 20
15 20 19 40 19 56 0 7 -9 47 -52 88 -97 41 -44 79 -86 83 -94 18 -31 27 -10
27 64 0 104 -11 123 -74 128 -76 6 -79 18 -6 29 25 4 46 8 48 10 5 4 -23 48
-67 108 -39 52 -64 63 -167 73 -32 3 -62 8 -66 10 -5 3 -7 0 -6 -7z m260 -245
c46 -15 46 -16 50 -65 2 -32 -2 -55 -9 -61 -9 -7 -13 -7 -13 1 0 12 -29 49
-82 103 -35 35 -36 38 -14 38 12 0 43 -7 68 -16z"/>
<path d="M1200 1829 c19 -5 69 -11 110 -14 110 -7 170 -16 170 -25 0 -10 -202
-24 -229 -15 -15 5 -21 2 -21 -9 0 -13 15 -16 95 -16 57 0 95 -4 95 -10 0 -5
-6 -10 -13 -10 -7 0 -17 -10 -22 -22 -6 -13 -17 -22 -24 -20 -7 1 -9 -2 -6 -9
5 -7 27 8 60 41 38 37 59 51 76 49 13 -1 37 3 52 9 16 7 33 12 38 12 6 0 8 4
5 9 -4 5 -18 5 -36 -2 -25 -10 -32 -9 -43 7 -10 14 -36 19 -137 26 -69 5 -143
9 -165 9 l-40 -1 35 -9z"/>
<path d="M1287 1654 c34 -32 38 -33 55 -17 21 19 18 25 -19 29 -14 2 -29 7
-32 11 -3 4 -14 9 -24 9 -12 1 -6 -8 20 -32z"/>
<path d="M1269 1446 c-2 -2 -35 -7 -73 -10 -38 -4 -72 -9 -74 -11 -3 -3 39 -2
94 3 54 4 207 7 339 7 132 -1 220 2 195 6 -46 8 -473 12 -481 5z"/>
<path d="M590 1238 c0 -25 2 -26 35 -21 l34 6 -2 -113 -2 -113 31 -1 30 -1 -4
114 -5 114 32 -6 c29 -6 31 -4 31 21 l0 27 -90 0 -90 0 0 -27z"/>
<path d="M796 1175 c3 -49 2 -109 -4 -132 l-10 -43 79 0 79 0 0 36 c0 28 -3
34 -12 27 -7 -6 -25 -13 -39 -17 -24 -5 -27 -2 -33 25 -9 49 -8 51 24 44 28
-6 30 -4 30 20 0 25 -3 27 -30 22 -32 -7 -35 -1 -23 41 6 24 22 26 66 7 14 -6
17 -2 17 27 l0 34 -75 0 -74 -1 5 -90z"/>
<path d="M965 1133 l0 -133 73 0 72 0 0 36 c0 31 -3 35 -17 29 -10 -5 -29 -8
-43 -9 l-25 -1 2 106 1 105 -31 0 -32 0 0 -133z"/>
<path d="M1125 1246 c9 -38 12 -167 5 -207 l-7 -39 78 0 79 0 0 34 0 34 -37
-13 c-47 -16 -53 -13 -53 31 0 32 2 34 25 28 22 -5 25 -3 25 21 0 24 -3 26
-25 21 -23 -6 -25 -4 -25 30 0 34 2 36 28 31 15 -3 36 -9 46 -13 16 -6 18 -4
13 10 -4 10 -7 25 -7 35 0 14 -12 16 -75 17 -71 1 -74 0 -70 -20z"/>
<path d="M1294 1261 c-2 -2 -4 -15 -4 -28 0 -22 3 -23 37 -17 l36 7 -6 -112
-7 -111 25 0 c14 0 28 0 33 0 4 0 5 50 3 112 l-3 111 31 -6 c26 -6 31 -4 31
13 0 11 -1 23 -2 27 -3 7 -167 11 -174 4z"/>
<path d="M1495 1132 l0 -137 36 3 36 4 -9 45 c-12 52 -6 63 22 38 13 -12 20
-31 20 -56 0 -38 0 -38 33 -32 17 3 34 7 35 9 7 6 -20 75 -35 90 -11 11 -13
18 -5 23 18 11 33 60 26 87 -10 40 -50 64 -108 64 l-51 0 0 -138z m103 54 c3
-39 -11 -66 -34 -66 -10 0 -14 13 -14 43 0 72 42 92 48 23z"/>
<path d="M1716 1185 c-4 -44 -13 -103 -21 -130 -8 -26 -15 -51 -15 -54 0 -4
18 -5 41 -3 37 4 40 7 36 28 -3 20 0 24 20 24 20 0 23 -4 21 -26 -3 -24 0 -27
35 -28 20 0 37 2 37 6 0 4 -7 35 -15 70 -14 64 -23 123 -24 169 -1 24 -4 25
-55 25 l-54 0 -6 -81z m69 -1 c3 -16 7 -44 10 -61 5 -28 3 -33 -15 -33 -22 0
-25 22 -14 93 8 42 13 43 19 1z"/>
<path d="M1884 1255 c14 -37 34 -162 35 -217 l1 -38 54 0 53 0 8 73 c3 39 13
97 21 127 18 70 19 66 -20 66 l-35 0 -6 -75 c-3 -42 -9 -92 -12 -111 l-6 -35
-9 45 c-4 25 -9 75 -11 111 l-2 66 -38 -1 c-21 0 -36 -5 -33 -11z"/>
<path d="M2095 1169 c2 -53 0 -112 -5 -132 -4 -20 -4 -37 1 -39 5 -2 40 -2 79
0 l70 4 0 33 0 33 -37 -13 c-47 -16 -53 -13 -53 32 0 33 2 35 25 29 22 -6 25
-3 25 20 0 23 -3 25 -25 20 -23 -6 -25 -4 -25 30 0 34 2 36 28 32 15 -3 34 -8
44 -12 13 -6 16 -1 16 27 l0 34 -73 -1 -73 -1 3 -96z"/>
<path d="M2265 1133 l0 -133 71 0 71 0 -2 38 c0 20 -5 35 -10 33 -52 -20 -59
-21 -68 -12 -9 9 -6 155 4 190 3 10 -6 15 -31 16 l-35 2 0 -134z"/>
<path d="M1463 818 c-13 -64 -6 -75 42 -61 20 7 37 7 40 2 4 -5 16 -7 28 -5
12 3 27 5 32 5 6 1 11 13 11 27 2 30 9 38 23 29 8 -4 6 -15 -4 -34 -8 -16 -11
-31 -8 -35 4 -3 -1 -6 -10 -6 -9 0 -17 -4 -17 -10 0 -18 22 -10 47 17 17 18
27 22 32 14 4 -6 18 -9 32 -7 13 3 29 5 36 5 6 1 16 15 22 31 13 40 29 38 27
-2 -1 -37 27 -48 31 -13 2 11 0 14 -3 8 -11 -25 -20 -12 -16 22 4 32 2 35 -21
33 -20 -2 -27 -9 -32 -35 -3 -18 -10 -33 -16 -33 -6 0 -7 14 -3 35 5 31 4 35
-15 35 -15 0 -27 -11 -38 -35 -9 -19 -20 -35 -25 -35 -10 0 -10 3 2 34 6 16 6
27 0 31 -19 12 -48 -6 -59 -35 -7 -22 -16 -30 -33 -29 -23 0 -23 0 -2 9 26 10
39 39 24 54 -14 14 -44 -4 -48 -30 -7 -35 -22 -39 -22 -7 0 18 -5 35 -11 38
-6 4 -10 1 -8 -6 4 -34 -2 -59 -16 -59 -12 0 -12 6 0 48 18 57 18 52 2 52 -8
0 -18 -22 -24 -52z m248 -41 c-18 -18 -25 1 -11 30 l14 28 4 -24 c2 -13 -1
-28 -7 -34z"/>
<path d="M1876 840 c-3 -16 -9 -44 -12 -61 -4 -20 -3 -30 3 -26 6 4 13 20 16
37 4 16 11 30 17 30 6 0 8 -10 4 -24 -8 -34 2 -49 26 -36 11 6 21 6 24 1 3 -5
17 -8 30 -8 19 0 26 6 31 28 9 38 26 48 19 11 -6 -31 12 -54 26 -32 6 9 12 9
30 0 19 -10 26 -9 43 9 12 12 16 21 9 21 -6 0 -12 -4 -12 -10 0 -5 -9 -10 -21
-10 -21 0 -21 0 2 18 14 12 20 25 16 35 -11 28 -37 19 -53 -18 -8 -20 -19 -33
-24 -30 -7 4 -6 13 0 25 13 25 13 30 -5 30 -8 0 -15 5 -15 11 0 5 -5 7 -10 4
-6 -4 -10 -12 -8 -18 5 -26 -14 -57 -34 -57 -20 0 -19 1 3 18 14 12 20 25 16
35 -11 28 -37 19 -53 -18 -17 -41 -39 -49 -24 -9 11 27 5 48 -11 39 -5 -4 -9
3 -9 14 0 32 -17 25 -24 -9z"/>
<path d="M1214 843 c-16 -38 -16 -80 1 -87 23 -9 31 -1 40 36 l9 33 3 -32 c3
-26 9 -32 31 -35 19 -2 27 -8 26 -20 -1 -10 2 -18 6 -18 10 0 21 27 26 64 5
38 24 59 24 27 0 -12 -5 -31 -10 -42 -12 -22 -11 -23 24 -9 14 5 26 14 26 20
0 6 -4 9 -9 5 -5 -3 -11 7 -13 22 -2 20 -9 29 -25 31 -18 3 -24 -3 -31 -29 -4
-18 -14 -35 -22 -37 -9 -3 -11 0 -7 12 4 9 10 23 13 31 3 8 1 15 -5 15 -6 0
-14 -13 -17 -30 -4 -16 -11 -30 -16 -30 -6 0 -7 11 -4 25 8 33 -20 69 -30 38
-13 -42 -24 -63 -32 -63 -5 0 -7 11 -4 25 2 14 8 25 13 25 5 0 9 9 9 20 0 25
-15 26 -26 3z"/>
<path d="M1106 843 c-3 -3 -6 -16 -6 -27 0 -24 -16 -53 -25 -45 -3 4 -1 18 4
32 6 15 6 29 1 32 -4 3 -11 -8 -15 -25 -10 -45 -29 -51 -22 -7 7 48 -9 48 -18
1 -8 -43 -6 -45 39 -49 31 -4 35 -1 41 25 9 39 26 50 19 12 -4 -18 -1 -32 5
-37 13 -8 41 12 41 28 0 7 -4 7 -12 -1 -20 -20 -28 -14 -18 14 6 14 10 27 10
29 0 9 -38 24 -44 18z"/>
<path d="M885 823 c-14 -34 -14 -63 1 -63 19 0 18 -10 -3 -26 -16 -12 -16 -13
-2 -14 9 0 24 9 34 20 14 15 26 19 46 15 30 -7 49 14 49 55 0 47 -59 25 -60
-22 0 -10 -5 -18 -10 -18 -7 0 -8 13 -4 36 4 24 3 35 -3 31 -6 -4 -13 -20 -16
-37 -4 -16 -11 -30 -17 -30 -7 0 -9 13 -4 35 7 37 1 47 -11 18z m105 -40 c-15
-32 -25 -16 -15 24 4 19 9 23 17 15 9 -9 8 -19 -2 -39z"/>
</g>
</svg>
